<?xml version="1.0" encoding="UTF-8"?><svg id="Layer_1" xmlns="http://www.w3.org/2000/svg" viewBox="0 0 186.365 182.357"><defs><style>.cls-1{fill:#efcda2;}</style></defs><path class="cls-1" d="M91.995,50.72c-6.937-6.49-13.039-17.844-16.064-26.799-.642-1.9-.739-3.7-1.465-5.486l-.456.089c.087,2.402-.417,4.818-.26,7.223.018.273.042.621.081,1.039,0,0,.393,4.288,1.828,8.816,6.755,21.318,20.546,31.178,20.546,31.178,1.955,1.398,4.462,2.963,7.562,4.408,3.286,1.091,9.289,3.573,14.896,9.139,4.694,4.66,7.156,9.54,8.408,12.585h0c2.425,4.25,4.736,8.698,5.849,13.487-.342-.255-.792-.704-1.061-1.029-5.135-6.222-10.252-12.896-16.402-18.134-3.558-3.03-7.646-5.793-11.906-7.7-1.872-.838-3.873-1.189-5.786-1.878-7.235-2.606-18.365-7.132-26.7-15.007-7.472-7.06-10.983-14.689-13.298-19.602-1.703-3.614-3.925-8.328-5.107-14.611-.46-2.443-1.451-8.784-1.46-8.837,0,0-.415,3.978-.394,4.538.461,12.594,3.979,25.62,10.678,36.331,4.478,7.159,11.037,13.845,18.383,17.977,9.157,5.151,19.86,9.49,28.006,16.018,4.013,3.216,6.458,6.187,9.812,9.971,2.094,2.362,4.162,4.722,6.234,7.134.829.965,2.5,2.053,3.354,4.234.571,1.456.62,2.788.637,3.375,0,0,.065,2.239-.837,4.63-1.336,3.537-4.87,8.239-10.199,10.298-9.342,3.609-14.445,3.694-23.826.493-6.396-2.183-12.612-4.751-18.949-7.073-8.289-3.037-13.806-4.583-22.894-4.015-.827.052-4.738.605-5.081,1.202-.216.377,2.167.896,2.77.927,12.188.633,24.705,9.279,35.429,14.476,4.75,2.302,10.032,4.938,15.362,5.491,5.917.614,14.032-.118,19.278-2.997,6.843-3.755,13.216-9.861,16.235-17.094,2.534-6.07,2.856-12.583,5.772-18.467,2.279-4.599,5.238-11.04,8.533-14.816,1.658-1.9,2.958-2.587,5.594-2.215,2.037.287,2.592,3.887,2.404,5.579-.374,3.359-3.804,6.323-5.655,8.961-4.29,6.117-7.573,14.844-11.009,21.608-3.41,6.713-6.346,10.668-11.42,14.78-6.872,5.569-13.832,7.223-15.545,7.596-2.658.579-9.48,1.733-22.094-1.965-18.621-5.459-34.519-16.992-45.41-19.478-4.836-1.104-9.6-.932-9.6-.932-1.5.02-5.402.148-11.616,1.701-4.445,1.111-10.823,3.138-18.153,7.044-.221.747.136.779.725.547,5.949-2.348,16.254-3.64,22.604-2.837,10.451,1.322,20.653,4.226,29.399,10.169,1.929,1.311,3.729,2.838,5.663,4.14,11.425,7.688,24.559,13.297,38.572,13.311,2.924.003,7.278-.723,10.289-1.134,8.791-1.2,18.048-7.255,23.939-13.668,6.208-6.757,12.303-16.422,16.333-24.661,2.557-5.228,3.792-10.924,7.019-15.795,1.494-2.256,3.134-4.409,5.244-6.162,2.299-1.91,5.374-2.925,8.208-3.912.521-.181,4.437-1.188,4.445-1.432l-.658-.989c-3.473-1.557-8.457-2.447-11.518-4.655-1.737-1.253-3.327-3.774-5.34-4.997-4.003-2.432-12.141-4.375-16.071-1.207-3.042,2.452-4.835,6.045-6.6,9.438-.585-.651-.865-1.49-1.367-2.194-4.276-6-9.18-11.246-14.315-16.519-5.016-5.152-8.684-7.112-14.863-10.446-5.611-3.027-12.045-6.825-16.708-11.188ZM84.688,59.278c-6.273-7.33-11.346-14.405-13.214-24.128-.143-.742-.272-3.772-.75-4.062-.802-.37-.788.727-.896,1.254.976,6.328,1.606,12.324,3.959,18.318,2.268,5.778,6.6,10.731,10.74,15.282,7.995,8.786,18.155,10.109,27.842,15.825,2.805,1.655,4.235,2.863,6.554,5.036,1.327,1.244,2.71,2.406,3.925,3.736.139.293.442.005.444-.092.002-.105-.854-1.681-.988-1.861-.522-.701-1.564-1.296-2.211-2.067-1.111-1.324-1.918-3.059-3.041-4.445-4.386-5.417-12.021-7.365-18.002-10.693-5.834-3.246-10.085-7.106-14.362-12.104ZM44.31,32.371l-.594-.294s5.523,27.774,13.734,38.485c4.255,5.551,10.507,8.236,16.175,11.986,2.542,1.681,4.677,3.71,7.017,5.459,4.397,3.287,9.294,6.116,13.583,9.587,3.027,2.45,5.395,5.476,8.215,8.005.468.419,1.801,1.79,2.327,1.431.493-.335-.305-1.286-.547-1.608-6.948-9.273-17.338-16.71-26.609-23.475-5.756-4.2-12.366-8.625-16.968-14.045-5.383-6.341-10.097-13.736-12.744-21.655-.818-2.449-3.591-13.876-3.591-13.876ZM95.554,106.693c-4.345-4.134-8.087-7.209-13.128-10.488-7.979-5.191-16.41-9.585-22.851-16.717-6.343-7.023-12.406-16.126-15.907-24.909-.258-.646-.348-1.51-.61-2.064-.459-.972-.643,1.261-.624,1.549.263,4.134,2.719,11.155,4.726,14.847,4.702,8.653,10.87,17.004,19.403,22.126,6.077,3.648,13.251,6.528,19.181,10.228,1.244.776,2.379,1.862,3.595,2.643,2.272,1.461,9.284,6.136,9.537,5.788s-2.245-1.98-3.321-3.003ZM40.586,71.188c-.329.389,4.305,8.684,4.787,9.491,5.776,9.662,16.494,21.259,27.98,23.529,7.284,1.44,14.255,2.799,20.272,7.533l2.578,2.678c-.264-.744-.979-1.541-1.511-2.141-3.148-3.554-9.543-8.628-13.95-10.29-5.891-2.222-10.519-2.617-16.036-6.243-7.957-5.229-18.57-14.512-23.01-22.974-.285-.543-1.109-1.584-1.109-1.584Z"/><path class="cls-1" d="M91.995,50.72c4.663,4.363,11.097,8.161,16.708,11.188,6.18,3.334,9.847,5.294,14.863,10.446,5.135,5.274,10.039,10.519,14.315,16.519.502.704.782,1.543,1.367,2.194,1.765-3.393,3.558-6.986,6.6-9.438,3.93-3.168,12.068-1.225,16.071,1.207,2.014,1.223,3.604,3.744,5.34,4.997,3.061,2.208,8.045,3.098,11.518,4.655l.658.989c-.008.243-3.924,1.25-4.445,1.432-2.834.987-5.908,2.003-8.208,3.912-2.111,1.753-3.75,3.907-5.244,6.162-3.227,4.87-4.462,10.566-7.019,15.795-4.03,8.239-10.125,17.904-16.333,24.661-5.891,6.413-15.148,12.469-23.939,13.668-3.011.411-7.366,1.137-10.289,1.134-14.012-.013-27.147-5.622-38.572-13.311-1.934-1.302-3.734-2.829-5.663-4.14-8.745-5.943-18.947-8.848-29.399-10.169-6.35-.803-16.655.49-22.604,2.837-.589.232-.946.2-.725-.547,1.419-.958,27.768-8.743,29.769-8.745,2.529-.002,6.959.589,9.6.932,12.05,1.565,35.821,14.939,47.125,19.711,1.445.61,3.819,1.577,7.061,2.102,4.393.711,8.257.266,11.189-.091,2.33-.284,4.108-.536,6.245-1.124,2.069-.57,9.459-5.268,11.429-6.751,4.629-3.483,8.805-9.631,11.42-14.78,3.436-6.764,6.718-15.491,11.009-21.608,1.85-2.638,5.281-5.602,5.655-8.961.188-1.692-.366-5.292-2.404-5.579-2.636-.372-3.936.315-5.594,2.215-3.294,3.775-6.254,10.217-8.533,14.816-2.916,5.885-3.239,12.397-5.772,18.467-3.019,7.234-9.392,13.339-16.235,17.094-5.246,2.879-13.361,3.612-19.278,2.997-5.33-.553-10.612-3.189-15.362-5.491-10.724-5.198-23.879-13.515-35.429-14.476,0,0-2.986-.55-2.77-.927.343-.597,4.254-1.151,5.081-1.202,9.089-.568,14.606.978,22.894,4.015,6.337,2.322,12.553,4.891,18.949,7.073,9.382,3.201,14.485,3.116,23.826-.493,5.045-1.949,8.719-6.471,10.199-10.298.373-.965,1.213-3.137.803-5.819-.166-1.088-.483-1.896-.603-2.186-.96-2.321-2.76-3.542-3.354-4.234-2.071-2.412-4.14-4.772-6.234-7.134-3.354-3.784-5.8-6.756-9.812-9.971-8.146-6.528-18.849-10.867-28.006-16.018-7.214-4.058-13.62-9.282-18.383-17.977-4.114-7.51,6.457-1.409,9.582,2.181,6.697,7.695,17.278,11.613,26.7,15.007,1.913.689,3.914,1.04,5.786,1.878,4.259,1.907,8.347,4.67,11.906,7.7,6.15,5.238,11.268,11.912,16.402,18.134.268.325.719.774,1.061,1.029-1.269-3.266-3.198-7.963-5.849-13.487-5.453-11.359-8.292-17.114-13.832-20.787-5.826-3.863-7.387-.858-14.693-4.157-14.662-6.621-20.487-24.005-22.886-32.366-.84-2.925-1.712-6.835-1.908-9.855-.156-2.405.348-4.821.26-7.223l.456-.089c.726,1.786.823,3.587,1.465,5.486,3.025,8.955,9.127,20.309,16.064,26.799Z"/><path class="cls-1" d="M84.688,59.278c4.277,4.998,8.528,8.857,14.362,12.104,5.981,3.328,13.616,5.276,18.002,10.693,1.122,1.386,4.729,5.811,5.251,6.512.134.18.989,1.756.988,1.861-.001.096-.305.384-.444.092-1.215-1.329-2.598-2.492-3.925-3.736-2.318-2.173-3.749-3.381-6.554-5.036-9.687-5.716-19.846-7.039-27.842-15.825-4.141-4.55-8.472-9.504-10.74-15.282-2.353-5.994-2.983-11.99-3.959-18.318.108-.527.094-1.624.896-1.254.478.291.607,3.32.75,4.062,1.868,9.723,6.941,16.798,13.214,24.128Z"/><path class="cls-1" d="M45.278,39.163c.021.049.255.064.306.167,1.161,2.403,1.499,4.468,2.317,6.917,2.647,7.919,7.36,15.315,12.744,21.655,4.601,5.42,11.211,9.845,16.968,14.045,9.271,6.764,19.661,14.202,26.609,23.475l.547,1.608s-1.86-1.012-2.327-1.431c-2.82-2.528-5.187-5.555-8.215-8.005-4.289-3.471-9.186-6.3-13.583-9.587-2.34-1.749-4.475-3.778-7.017-5.459-5.668-3.75-11.92-6.435-16.175-11.986-8.211-10.712-12.268-24.659-14.015-37.868l.282-.617.594.294.968,6.792Z"/><path class="cls-1" d="M95.554,106.693c1.076,1.023,2.354,1.852,3.321,3.003-.172-.062-.425-.163-.718-.313-.486-.25-.812-.499-.897-.563-.984-.736-4.587-2.768-7.921-4.912-1.215-.781-2.351-1.867-3.595-2.643-5.929-3.7-13.103-6.58-19.181-10.228-8.533-5.121-14.7-13.473-19.403-22.126-2.006-3.692-4.462-10.713-4.726-14.847-.018-.288.165-2.521.624-1.549.261.553.352,1.418.61,2.064,3.5,8.782,9.564,17.886,15.907,24.909,6.441,7.132,14.872,11.526,22.851,16.717,5.041,3.279,8.782,6.354,13.128,10.488Z"/><path class="cls-1" d="M41.696,72.771c4.44,8.462,15.054,17.745,23.01,22.974,5.517,3.626,10.145,4.021,16.036,6.243,4.407,1.662,10.802,6.736,13.95,10.29.532.6,1.247,1.397,1.511,2.141l-2.578-2.678c-6.017-4.734-12.987-6.093-20.272-7.533-11.486-2.27-22.204-13.868-27.98-23.529-.482-.807-3.963-8.45-3.678-7.907Z"/><path class="cls-1" d="M77.452,112.968c1.893.933-2.475-.552-3.698-.844-1.249-.299-2.51-.086-3.696-.225-5.045-.595-11.09-1.901-15.477-4.485-1.835-1.081-5.854-3.736-7.413-5.063-.559-.476-1.184-.919-.137-1.292,2.605,1.259,5.212,2.603,8.006,3.404,1.737.498,3.524.717,5.272,1.144,5.364,1.309,10.442,4.339,15.618,6.483.545.226-.37-.053,1.524.88Z"/></svg>